<?xml version="1.0" encoding="utf-8"?>
<!-- Generator: Adobe Illustrator 16.0.3, SVG Export Plug-In . SVG Version: 6.00 Build 0)  -->
<!DOCTYPE svg PUBLIC "-//W3C//DTD SVG 1.1//EN" "http://www.w3.org/Graphics/SVG/1.1/DTD/svg11.dtd">
<svg version="1.1" id="Layer_1" xmlns="http://www.w3.org/2000/svg" xmlns:xlink="http://www.w3.org/1999/xlink" x="0px" y="0px"
	 width="1729.13px" height="864.57px" viewBox="0 0 1729.13 864.57" enable-background="new 0 0 1729.13 864.57"
	 xml:space="preserve">
<circle fill="none" stroke="#231F20" stroke-miterlimit="10" cx="77.51" cy="112.388" r="9.921"/>
<circle fill="none" stroke="#231F20" stroke-miterlimit="10" cx="477.51" cy="90.377" r="9.921"/>
<circle fill="none" stroke="#231F20" stroke-miterlimit="10" cx="356.177" cy="255.721" r="9.921"/>
<circle fill="none" stroke="#231F20" stroke-miterlimit="10" cx="379.02" cy="385.333" r="9.921"/>
<circle fill="none" stroke="#231F20" stroke-miterlimit="10" cx="326" cy="293.283" r="9.921"/>
<circle fill="none" stroke="#231F20" stroke-miterlimit="10" cx="477.51" cy="346.921" r="9.921"/>
<circle fill="none" stroke="#231F20" stroke-miterlimit="10" cx="502.885" cy="375.412" r="9.921"/>
<circle fill="none" stroke="#231F20" stroke-miterlimit="10" cx="649.5" cy="414.5" r="9.921"/>
<circle fill="none" stroke="#231F20" stroke-miterlimit="10" cx="590" cy="545" r="9.921"/>
<circle fill="none" stroke="#231F20" stroke-miterlimit="10" cx="446" cy="491" r="9.921"/>
<circle fill="none" stroke="#231F20" stroke-miterlimit="10" cx="432.018" cy="405.749" r="9.921"/>
<circle fill="none" stroke="#231F20" stroke-miterlimit="10" cx="385.941" cy="470.843" r="9.921"/>
<circle fill="none" stroke="#231F20" stroke-miterlimit="10" cx="316.079" cy="402.176" r="9.921"/>
<circle fill="none" stroke="#231F20" stroke-miterlimit="10" cx="270" cy="362.491" r="9.921"/>
<circle fill="none" stroke="#231F20" stroke-miterlimit="10" cx="234.5" cy="654.922" r="9.921"/>
<line fill="none" stroke="#231F20" stroke-miterlimit="10" x1="80.167" y1="102.466" x2="86.167" y2="64.833"/>
<line fill="none" stroke="#231F20" stroke-miterlimit="10" x1="76" y1="123.5" x2="69.667" y2="156.833"/>
<line fill="none" stroke="#231F20" stroke-miterlimit="10" x1="82.093" y1="121.183" x2="131.726" y2="218.212"/>
<line fill="none" stroke="#231F20" stroke-miterlimit="10" x1="86.167" y1="64.833" x2="213.781" y2="205.195"/>
<line fill="none" stroke="#231F20" stroke-miterlimit="10" x1="69.667" y1="156.833" x2="114.124" y2="288.897"/>
<line fill="none" stroke="#231F20" stroke-miterlimit="10" x1="109.871" y1="304.951" x2="70.667" y2="338.333"/>
<line fill="none" stroke="#231F20" stroke-miterlimit="10" x1="70.667" y1="338.333" x2="225.838" y2="415.669"/>
<line fill="none" stroke="#231F20" stroke-miterlimit="10" x1="120.354" y1="307.729" x2="157.333" y2="419.079"/>
<line fill="none" stroke="#231F20" stroke-miterlimit="10" x1="148.252" y1="427.188" x2="65.333" y2="434.667"/>
<line fill="none" stroke="#231F20" stroke-miterlimit="10" x1="65.333" y1="434.667" x2="228.969" y2="646.686"/>
<line fill="none" stroke="#231F20" stroke-miterlimit="10" x1="149.104" y1="433.37" x2="69.5" y2="492.667"/>
<line fill="none" stroke="#231F20" stroke-miterlimit="10" x1="69.5" y1="492.667" x2="228.144" y2="647.308"/>
<line fill="none" stroke="#231F20" stroke-miterlimit="10" x1="231.879" y1="645.362" x2="163.222" y2="437.425"/>
<line fill="none" stroke="#231F20" stroke-miterlimit="10" x1="234.5" y1="430.421" x2="234.5" y2="645.001"/>
<line fill="none" stroke="#231F20" stroke-miterlimit="10" x1="230.169" y1="411.577" x2="140.299" y2="235.847"/>
<line fill="none" stroke="#231F20" stroke-miterlimit="10" x1="220.513" y1="223.256" x2="224.579" y2="307.237"/>
<line fill="none" stroke="#231F20" stroke-miterlimit="10" x1="228.277" y1="209.108" x2="467.962" y2="93.045"/>
<line fill="none" stroke="#231F20" stroke-miterlimit="10" x1="470.97" y1="97.828" x2="360.944" y2="247.02"/>
<line fill="none" stroke="#231F20" stroke-miterlimit="10" x1="229.041" y1="215.511" x2="347.363" y2="251.18"/>
<line fill="none" stroke="#231F20" stroke-miterlimit="10" x1="366.007" y1="257.001" x2="391.976" y2="264.371"/>
<line fill="none" stroke="#231F20" stroke-miterlimit="10" x1="227.845" y1="218.508" x2="320.243" y2="285.213"/>
<line fill="none" stroke="#231F20" stroke-miterlimit="10" x1="331.761" y1="285.213" x2="348.662" y2="262.187"/>
<line fill="none" stroke="#231F20" stroke-miterlimit="10" x1="320.243" y1="301.353" x2="278.775" y2="357.868"/>
<line fill="none" stroke="#231F20" stroke-miterlimit="10" x1="334.227" y1="298.83" x2="360.944" y2="328.535"/>
<line fill="none" stroke="#231F20" stroke-miterlimit="10" x1="226.469" y1="220.31" x2="372.334" y2="378.018"/>
<line fill="none" stroke="#231F20" stroke-miterlimit="10" x1="275.461" y1="370.771" x2="306.864" y2="398.512"/>
<line fill="none" stroke="#231F20" stroke-miterlimit="10" x1="244.244" y1="418.655" x2="306.158" y2="402.176"/>
<line fill="none" stroke="#231F20" stroke-miterlimit="10" x1="325.295" y1="398.512" x2="369.251" y2="387.013"/>
<line fill="none" stroke="#231F20" stroke-miterlimit="10" x1="243.879" y1="423.711" x2="312.429" y2="447.19"/>
<line fill="none" stroke="#231F20" stroke-miterlimit="10" x1="385.715" y1="378.018" x2="410.227" y2="350.53"/>
<line fill="none" stroke="#231F20" stroke-miterlimit="10" x1="388.293" y1="388.835" x2="422.771" y2="402.176"/>
<line fill="none" stroke="#231F20" stroke-miterlimit="10" x1="426.157" y1="413.751" x2="389.763" y2="461.687"/>
<line fill="none" stroke="#231F20" stroke-miterlimit="10" x1="376.755" y1="467.098" x2="330.822" y2="453.499"/>
<line fill="none" stroke="#231F20" stroke-miterlimit="10" x1="425.744" y1="345.477" x2="467.588" y2="348.5"/>
<line fill="none" stroke="#231F20" stroke-miterlimit="10" x1="404.098" y1="258.12" x2="473.212" y2="99.309"/>
<line fill="none" stroke="#231F20" stroke-miterlimit="10" x1="480.288" y1="99.897" x2="514.667" y2="293.458"/>
<line fill="none" stroke="#231F20" stroke-miterlimit="10" x1="506.894" y1="300.755" x2="410.739" y2="270.79"/>
<line fill="none" stroke="#231F20" stroke-miterlimit="10" x1="395.561" y1="473.233" x2="436.591" y2="487.863"/>
<line fill="none" stroke="#231F20" stroke-miterlimit="10" x1="450.386" y1="482.107" x2="498.225" y2="384.17"/>
<line fill="none" stroke="#231F20" stroke-miterlimit="10" x1="238.334" y1="645.771" x2="317" y2="461.687"/>
<line fill="none" stroke="#231F20" stroke-miterlimit="10" x1="240.032" y1="646.686" x2="378.132" y2="476.948"/>
<line fill="none" stroke="#231F20" stroke-miterlimit="10" x1="438.168" y1="497.079" x2="242.168" y2="648.627"/>
<line fill="none" stroke="#231F20" stroke-miterlimit="10" x1="439.458" y1="412.295" x2="582.675" y2="538.326"/>
<line fill="none" stroke="#231F20" stroke-miterlimit="10" x1="580.7" y1="541.573" x2="454.964" y2="495.229"/>
<line fill="none" stroke="#231F20" stroke-miterlimit="10" x1="593.187" y1="535.611" x2="617.667" y2="480.549"/>
<line fill="none" stroke="#231F20" stroke-miterlimit="10" x1="617.667" y1="480.549" x2="569.591" y2="453.499"/>
<line fill="none" stroke="#231F20" stroke-miterlimit="10" x1="455.196" y1="487.282" x2="550.156" y2="452.192"/>
<line fill="none" stroke="#231F20" stroke-miterlimit="10" x1="568.498" y1="445.9" x2="640.73" y2="419.135"/>
<line fill="none" stroke="#231F20" stroke-miterlimit="10" x1="639.711" y1="412.956" x2="511.706" y2="379.938"/>
<line fill="none" stroke="#231F20" stroke-miterlimit="10" x1="525.753" y1="306.754" x2="723.333" y2="388"/>
<line fill="none" stroke="#231F20" stroke-miterlimit="10" x1="723.333" y1="388" x2="659.17" y2="412.295"/>
<line fill="none" stroke="#231F20" stroke-miterlimit="10" x1="650.502" y1="404.629" x2="666.333" y2="299.5"/>
<line fill="none" stroke="#231F20" stroke-miterlimit="10" x1="666.333" y1="299.5" x2="485.196" y2="96.648"/>
<line fill="none" stroke="#231F20" stroke-miterlimit="10" x1="486.427" y1="94.706" x2="664.213" y2="222.105"/>
<circle fill="none" stroke="#FF0000" stroke-width="3" stroke-miterlimit="10" cx="401.333" cy="267.643" r="9.921"/>
<circle fill="none" stroke="#FF0000" stroke-width="3" stroke-miterlimit="10" cx="366.099" cy="337" r="9.921"/>
<circle fill="none" stroke="#FF0000" stroke-width="3" stroke-miterlimit="10" cx="321" cy="452.171" r="9.921"/>
<line fill="none" stroke="#FF0000" stroke-width="3" stroke-miterlimit="10" x1="364.157" y1="346.729" x2="324.572" y2="442.924"/>
<line fill="none" stroke="#FF0000" stroke-width="3" stroke-miterlimit="10" x1="396.123" y1="276.074" x2="372.334" y2="328.535"/>
<circle fill="none" stroke="#FF0000" stroke-width="3" stroke-miterlimit="10" cx="134.653" cy="227.694" r="9.921"/>
<circle fill="none" stroke="#FF0000" stroke-width="3" stroke-miterlimit="10" cx="219.346" cy="213.408" r="9.921"/>
<circle fill="none" stroke="#FF0000" stroke-width="3" stroke-miterlimit="10" cx="224.579" cy="317.158" r="9.921"/>
<circle fill="none" stroke="#FF0000" stroke-width="3" stroke-miterlimit="10" cx="117.231" cy="298.315" r="9.921"/>
<circle fill="none" stroke="#FF0000" stroke-width="3" stroke-miterlimit="10" cx="234.5" cy="420.5" r="9.921"/>
<circle fill="none" stroke="#FF0000" stroke-width="3" stroke-miterlimit="10" cx="158" cy="429" r="9.921"/>
<line fill="none" stroke="#FF0000" stroke-width="3" stroke-miterlimit="10" x1="144.459" y1="226.264" x2="209.472" y2="214.356"/>
<line fill="none" stroke="#FF0000" stroke-width="3" stroke-miterlimit="10" x1="120.354" y1="288.897" x2="132.956" y2="237.459"/>
<line fill="none" stroke="#FF0000" stroke-width="3" stroke-miterlimit="10" x1="167.351" y1="425.707" x2="224.66" y2="421.716"/>
<line fill="none" stroke="#FF0000" stroke-width="3" stroke-miterlimit="10" x1="234.5" y1="410.579" x2="225.838" y2="326.991"/>
<line fill="none" stroke="#FF0000" stroke-width="3" stroke-miterlimit="10" x1="214.658" y1="317.158" x2="126.91" y2="300.478"/>
<circle fill="none" stroke="#FF0000" stroke-width="3" stroke-miterlimit="10" cx="672.408" cy="227.694" r="9.921"/>
<circle fill="none" stroke="#FF0000" stroke-width="3" stroke-miterlimit="10" cx="516.498" cy="303.204" r="9.921"/>
<circle fill="none" stroke="#FF0000" stroke-width="3" stroke-miterlimit="10" cx="416.236" cy="342.648" r="9.921"/>
<circle fill="none" stroke="#FF0000" stroke-width="3" stroke-miterlimit="10" cx="560" cy="451" r="9.921"/>
<line fill="none" stroke="#FF0000" stroke-width="3" stroke-miterlimit="10" x1="425.744" y1="339.813" x2="507.24" y2="306.754"/>
<line fill="none" stroke="#FF0000" stroke-width="3" stroke-miterlimit="10" x1="558.998" y1="441.13" x2="519.187" y2="312.747"/>
<line fill="none" stroke="#FF0000" stroke-width="3" stroke-miterlimit="10" x1="662.613" y1="229.201" x2="525.07" y2="298.226"/>
<rect x="391.114" y="598.582" fill="none" width="526.474" height="121.494"/>
<text transform="matrix(1 0 0 1 391.1143 684.7998)" fill="#231F20" font-family="'Impact'" font-size="109">Svendborg</text>
<rect x="395.614" y="739.575" fill="none" width="1261.437" height="97.495"/>
<text transform="matrix(1 0 0 1 395.6138 825.793)" fill="#231F20" font-family="'Impact'" font-size="109">Tekniske Gymnasium (HTX)</text>
</svg>
